<?xml version="1.0" standalone="no"?>
<!DOCTYPE svg PUBLIC "-//W3C//DTD SVG 20010904//EN"
 "http://www.w3.org/TR/2001/REC-SVG-20010904/DTD/svg10.dtd">
<svg version="1.0" xmlns="http://www.w3.org/2000/svg"
 width="516.000000pt" height="516.000000pt" viewBox="0 0 516.000000 516.000000"
 preserveAspectRatio="xMidYMid meet">
<metadata>
Created by potrace 1.14, written by Peter Selinger 2001-2017
</metadata>
<g transform="translate(0.000000,516.000000) scale(0.100000,-0.100000)"
fill="#000000" stroke="none">
<path d="M598 4110 c-38 -3 -69 -8 -71 -11 -9 -12 -529 -2900 -524 -2906 4 -4
63 -11 130 -16 l122 -9 548 241 c301 132 550 241 553 241 2 0 39 -26 82 -58
257 -195 580 -306 957 -328 270 -16 611 48 850 160 l70 32 218 -210 c120 -116
224 -211 231 -211 7 0 324 324 704 720 l692 720 0 125 0 126 -696 669 c-383
369 -711 682 -729 697 l-32 28 -379 -395 c-208 -217 -383 -395 -389 -395 -5 0
-38 9 -72 20 -184 57 -486 65 -693 16 -128 -29 -218 -63 -329 -121 l-83 -45
-42 37 c-22 20 -240 226 -484 458 l-444 420 -61 1 c-34 1 -92 -2 -129 -6z
m3505 -1164 l375 -360 -330 -343 c-182 -189 -331 -343 -332 -343 -1 0 15 35
36 78 68 139 80 208 84 452 l3 215 -13 -106 c-17 -134 -37 -203 -87 -303 -291
-584 -1184 -861 -1952 -606 -505 169 -842 544 -848 945 -1 72 -2 77 -12 46
-11 -34 4 -412 18 -457 6 -18 -7 -26 -117 -76 -68 -30 -124 -52 -126 -48 -3 8
203 1096 215 1134 4 15 45 -22 213 -189 204 -204 208 -208 199 -239 -10 -35
-10 -165 0 -211 6 -29 7 -28 29 30 12 33 31 75 43 94 l21 34 129 -129 c71 -71
129 -131 129 -134 0 -3 -57 -26 -127 -51 -70 -26 -129 -51 -131 -57 -6 -18 82
-116 165 -182 88 -71 184 -126 284 -164 l64 -24 260 118 260 117 131 -128 c73
-71 140 -129 150 -129 40 0 234 72 308 115 42 24 109 70 148 102 l71 58 -183
176 -184 177 121 129 c67 70 133 139 147 152 l26 25 51 -50 c68 -66 127 -154
160 -238 29 -75 27 -76 44 25 14 87 -25 236 -90 344 l-36 58 28 31 c66 74 268
276 274 274 4 -2 176 -165 382 -362z m-1390 169 c15 -6 8 -18 -50 -79 -38 -39
-132 -138 -209 -219 l-141 -148 -188 178 -187 177 44 19 c52 23 208 63 291 76
71 11 413 8 440 -4z"/>
<path d="M3900 1120 c0 -5 5 -10 10 -10 6 0 10 -18 10 -40 0 -22 5 -40 10 -40
6 0 10 18 10 40 0 29 4 40 15 40 11 0 15 -11 15 -40 0 -41 20 -58 21 -17 l0
22 9 -22 c12 -31 26 -29 38 5 l10 27 1 -27 c1 -16 6 -28 12 -28 14 0 7 92 -8
97 -7 3 -15 -7 -19 -21 -8 -32 -20 -33 -28 -3 -5 21 -12 24 -56 26 -28 1 -50
-3 -50 -9z"/>
</g>
</svg>
