<svg width="304" height="196" viewBox="0 0 304 196" fill="none" xmlns="http://www.w3.org/2000/svg">
<path d="M257.637 154.086L238.236 95.4297L253.351 111.447L277.265 138.068L276.137 126.337L283.356 134.008L303.886 154.086H257.637ZM155.665 95.4297L152.056 52.5653L163.11 64.2966L178.226 79.1863L152.281 0L176.646 26.1698L238.461 95.4297H155.665Z" fill="#0385A1"/>
<path d="M0 128.593V194.243H11.9569V171.683C13.9873 173.714 16.469 175.293 19.1762 176.421C21.6578 177.323 24.365 178 26.8466 178C33.1635 178 38.3524 175.519 42.8644 170.781C47.3764 166.043 49.6325 159.952 49.6325 152.733C49.6325 145.288 47.3764 139.197 43.09 134.459C39.0292 129.947 33.1635 127.24 27.0723 127.24C24.365 127.24 21.4322 127.691 18.9506 128.819C16.2434 129.947 13.9873 131.752 11.9569 133.782V128.368H0V128.593ZM34.0659 142.355C36.5475 145.062 37.6756 148.446 37.6756 152.507C37.6756 156.568 36.3219 160.178 33.8403 162.659C31.3587 165.366 27.9747 166.72 24.5906 166.72C20.981 166.72 17.597 165.366 15.1153 162.659C12.6337 159.952 11.2801 156.568 11.2801 152.281C11.2801 147.995 12.6337 144.611 15.1153 142.129C17.597 139.648 20.981 138.069 24.5906 138.294C28.2003 138.294 31.8099 139.873 34.0659 142.355Z" fill="black"/>
<path d="M98.5881 153.861C98.5881 145.965 96.1065 139.422 91.3688 134.685C86.6312 129.947 80.5399 127.465 72.8695 127.465C65.6502 127.465 59.7845 129.947 55.0469 134.685C50.3092 139.422 48.0532 145.513 48.0532 152.958C48.0532 160.178 50.5348 166.043 55.2725 170.781C60.0101 175.519 66.1014 178 73.7719 178C78.7351 178 82.796 177.098 86.4056 175.519C90.0152 173.714 93.1736 171.006 95.4297 167.622L85.2776 162.885C82.1191 166.043 78.0583 167.622 73.5463 167.622C69.711 167.622 66.7782 166.72 64.2966 164.69C61.815 162.659 60.2357 159.726 59.7845 156.568H98.5881V153.861ZM60.2357 146.641C61.5894 143.709 63.1686 141.678 64.7478 140.325C67.2294 138.52 70.3878 137.392 73.5463 137.392C76.4791 137.392 79.4119 138.294 81.6679 139.873C83.924 141.453 85.5032 143.709 86.4056 146.416H60.2357V146.641Z" fill="black"/>
<path d="M134.008 133.782C131.752 131.752 129.27 129.947 126.563 128.819C124.081 127.691 121.374 127.24 118.667 127.24C113.027 127.24 107.387 129.496 103.326 133.557C98.588 138.069 96.332 144.385 96.332 151.83C96.332 159.05 98.5881 164.915 103.1 169.427C107.387 173.939 113.252 176.421 119.343 176.421C122.051 176.421 124.758 175.97 127.24 175.067C129.721 173.939 131.977 172.36 134.008 170.555C134.008 174.391 133.556 177.098 132.88 178.677C131.977 180.482 130.398 181.835 128.593 182.512C126.563 183.415 124.081 184.091 120.697 184.091C118.441 184.091 116.185 183.866 114.155 182.963C112.35 182.287 110.771 181.384 109.643 179.805H96.332C97.2344 182.963 99.0393 185.671 101.295 188.152C103.551 190.408 106.259 192.213 109.417 193.341C112.575 194.469 116.636 195.146 121.374 195.146C130.172 195.146 136.715 192.664 141.227 187.475C144.385 183.64 146.19 177.775 146.19 169.427V128.593H134.233V133.782H134.008ZM131.075 142.355C133.556 144.837 134.684 148.221 134.684 152.056C134.684 156.117 133.556 159.501 131.075 161.982C128.593 164.464 125.209 165.818 121.825 165.818C118.215 165.818 114.831 164.464 112.35 161.982C109.868 159.501 108.515 156.117 108.515 152.056C108.515 148.446 109.643 145.062 112.124 142.355C114.606 139.873 117.99 138.52 121.599 138.52C125.435 138.52 128.593 139.873 131.075 142.355Z" fill="black"/>
<path d="M151.154 176.647H163.11V157.47C163.11 152.507 163.336 149.123 163.562 147.769C164.013 145.288 165.367 142.806 167.171 141.001C168.751 139.422 171.007 138.52 173.488 138.52C175.293 138.52 176.872 138.971 178.226 140.099C179.579 141.227 180.482 142.806 180.933 144.385C181.384 146.19 181.61 150.026 181.61 155.891V176.872H193.567V144.837C193.567 139.197 192.213 135.136 189.28 132.203C186.122 129.045 181.61 127.014 177.098 127.24C174.842 127.24 172.36 127.691 170.33 128.593C167.623 129.721 165.141 131.526 162.885 133.331V128.368H150.928V176.647H151.154Z" fill="black"/>
<path d="M210.261 109.868H198.304V176.421H210.261V109.868Z" fill="black"/>
</svg>